Coordinates
version=1
nRows=10
nColumns=40
inDegrees=yes

Units are S.I. units (second, meters, Newtons, ...)
Angles are in degrees.

endheader
time	pelvis_tilt	pelvis_list	pelvis_rotation	pelvis_tx	pelvis_ty	pelvis_tz	hip_flexion_r	hip_adduction_r	hip_rotation_r	knee_angle_r	knee_angle_r_beta	ankle_angle_r	subtalar_angle_r	mtp_angle_r	hip_flexion_l	hip_adduction_l	hip_rotation_l	knee_angle_l	knee_angle_l_beta	ankle_angle_l	subtalar_angle_l	mtp_angle_l	lumbar_extension	lumbar_bending	lumbar_rotation	arm_flex_r	arm_add_r	arm_rot_r	elbow_flex_r	pro_sup_r	wrist_flex_r	wrist_dev_r	arm_flex_l	arm_add_l	arm_rot_l	elbow_flex_l	pro_sup_l	wrist_flex_l	wrist_dev_l
      0.51000000	     -1.54097819	     -1.04866632	     10.16006388	     -0.58322459	      0.89047587	      1.45274551	     26.30330002	     -5.80769571	    -17.70270239	    -50.12944130	     -0.87492380	      4.58276688	    -17.56034455	     21.62888744	      8.86764420	      1.70821027	     11.46514692	    -25.51445305	     -0.44531121	     12.17313101	      0.95374545	     -3.98971929	     -6.24054111	     -1.30252250	     -9.75820544	     -4.82087835	     -6.00219535	    -15.66052614	     21.06950984	     89.95437384	      0.00000000	      0.00000000	      4.36419130	     12.51458327	     15.98251493	     40.54747171	     89.95437384	      0.00000000	      0.00000000
      0.52000000	     -1.84069769	     -0.84737962	     10.29045884	     -0.57565093	      0.88949047	      1.45141191	     27.22944513	     -6.13788000	    -18.01034010	    -48.12992715	     -0.84002570	      4.80762740	    -17.19905900	     21.28595507	      8.55304577	      1.48313304	     11.82772286	    -25.42004562	     -0.44366349	     12.35315903	      0.79399777	     -3.99583794	     -6.00198701	     -1.52357962	     -9.81274642	     -5.23149395	     -5.99229508	    -15.63513397	     20.70410035	     89.95437384	      0.00000000	      0.00000000	      4.90229055	     12.56205378	     15.89393167	     41.51463491	     89.95437384	      0.00000000	      0.00000000
      0.53000000	     -1.56238007	     -1.06488962	     10.45706066	     -0.56764078	      0.88945683	      1.45080759	     27.22319865	     -5.58543732	    -18.09051475	    -45.35841944	     -0.79165376	      4.97774092	    -16.96016075	     21.24221576	      7.57286942	      1.88230063	     11.91074563	    -25.13350653	     -0.43866244	     12.60924942	      0.01542718	     -4.18293263	     -6.35645613	     -1.25179209	    -10.15477965	     -4.96280806	     -5.91643454	    -15.86563325	     19.48847359	     89.95437384	      0.00000000	      0.00000000	      5.02452890	     12.77385621	     15.80735248	     43.09547281	     89.95437384	      0.00000000	      0.00000000
      0.54000000	     -1.25262430	     -1.31254231	     10.52851983	     -0.55922574	      0.88929880	      1.45045199	     27.10977793	     -5.03371786	    -18.30990178	    -42.48265891	     -0.74146227	      4.97597657	    -16.56214294	     20.82369201	      6.66596118	      2.67278561	     13.30833923	    -25.12773486	     -0.43856171	     12.26293397	     -2.39980756	     -4.95133426	     -6.68229634	     -0.93331755	    -10.17772023	     -5.17432019	     -5.87015867	    -16.11128718	     19.02042357	     89.95437384	      0.00000000	      0.00000000	      5.44936213	     12.86619132	     15.78127023	     44.17034145	     89.95437384	      0.00000000	      0.00000000
      0.55000000	     -1.41920342	     -1.25944786	     10.68738450	     -0.55139638	      0.88844949	      1.44959989	     27.56004141	     -5.03103703	    -18.47941363	    -39.76491088	     -0.69402862	      5.16629552	    -15.92660249	     20.54306729	      6.19193122	      2.62053143	     13.32643181	    -24.95761566	     -0.43559257	     12.41399041	     -2.58026914	     -5.05301394	     -6.58375406	     -0.99420670	    -10.40515043	     -5.25964680	     -5.84043187	    -16.20891162	     18.38565994	     89.95437384	      0.00000000	      0.00000000	      5.74641160	     12.98902481	     15.75301245	     45.31362149	     89.95437384	      0.00000000	      0.00000000
      0.56000000	     -1.44930369	     -1.24254387	     10.78545353	     -0.54333185	      0.88783144	      1.44892604	     27.77545215	     -4.91846239	    -18.54874595	    -36.96781669	     -0.64521012	      5.16537724	    -15.09930678	     20.15026992	      5.55917292	      2.69791575	     13.54854742	    -24.82150922	     -0.43321706	     12.57943288	     -2.91418818	     -5.18886766	     -6.61884001	     -0.97844690	    -10.53663720	     -5.35972495	     -5.81458321	    -16.39777742	     17.85581977	     89.95437384	      0.00000000	      0.00000000	      6.18924024	     13.01609483	     15.87990114	     46.15707911	     89.95437384	      0.00000000	      0.00000000
      0.57000000	     -1.55867704	     -1.18472156	     10.89945246	     -0.53525811	      0.88706308	      1.44822727	     28.03386717	     -4.87498614	    -18.55629721	    -34.18265341	     -0.59659985	      5.23602116	    -14.13438226	     19.56117560	      5.01306510	      2.73152499	     13.83100381	    -24.71679150	     -0.43138939	     12.72492530	     -3.33066003	     -5.32630279	     -6.57805644	     -1.01853372	    -10.67464119	     -5.50184050	     -5.80277185	    -16.58581620	     17.43856788	     89.95437384	      0.00000000	      0.00000000	      6.52041307	     13.13725563	     15.72287509	     47.11550119	     89.95437384	      0.00000000	      0.00000000
      0.58000000	     -1.97711621	     -0.99573164	     10.99077679	     -0.52737261	      0.88577999	      1.44764392	     28.69340329	     -5.03067784	    -18.39838298	    -31.65822803	     -0.55254031	      5.25876924	    -13.15761272	     19.23835744	      4.80248859	      2.50078434	     13.86949331	    -24.59819855	     -0.42931955	     12.86736457	     -3.51286646	     -5.36325661	     -6.22457259	     -1.27124552	    -10.81829511	     -5.72116594	     -5.78452926	    -16.62327431	     17.17924224	     89.95437384	      0.00000000	      0.00000000	      6.83809400	     13.26544481	     15.60930502	     47.96114676	     89.95437384	      0.00000000	      0.00000000
      0.59000000	     -2.14705660	     -0.96774878	     11.02050177	     -0.51919800	      0.88490306	      1.44727585	     28.97198317	     -4.96163457	    -18.38574112	    -29.01007693	     -0.50632136	      5.24172498	    -11.92219457	     18.82939419	      4.32667868	      2.53302455	     14.01930589	    -24.50699513	     -0.42772775	     13.04406148	     -3.66720583	     -5.42953919	     -6.10828143	     -1.29342393	    -10.89751297	     -5.76011871	     -5.78311230	    -16.81219520	     16.71799436	     89.95437384	      0.00000000	      0.00000000	      7.12200825	     13.33169209	     15.60935845	     48.75423386	     89.95437384	      0.00000000	      0.00000000
      0.60000000	     -2.50510644	     -0.70220752	     10.97946416	     -0.51088568	      0.88361030	      1.44677394	     29.68409880	     -5.33228203	    -18.90307043	    -27.10942610	     -0.47314874	      5.48369036	    -11.50305439	     18.67141593	      4.00980602	      2.26442805	     14.34269014	    -24.46018796	     -0.42691082	     13.23204984	     -3.69690339	     -5.44615755	     -5.78786170	     -1.60147084	    -10.81161392	     -6.00347268	     -5.81970287	    -16.85674144	     16.51894916	     89.95437384	      0.00000000	      0.00000000	      7.49127775	     13.32737783	     15.55358604	     49.37542295	     89.95437384	      0.00000000	      0.00000000
